<mxfile host="Electron" agent="Mozilla/5.0 (X11; Linux x86_64) AppleWebKit/537.36 (KHTML, like Gecko) draw.io/26.0.4 Chrome/128.0.6613.186 Electron/32.2.5 Safari/537.36" version="26.0.4">
  <diagram name="Page-1" id="kgNro5y93QIF35jHFry2">
    <mxGraphModel dx="4140" dy="3647" grid="1" gridSize="10" guides="1" tooltips="1" connect="1" arrows="1" fold="1" page="1" pageScale="1" pageWidth="850" pageHeight="1100" math="0" shadow="0">
      <root>
        <mxCell id="0" />
        <mxCell id="1" parent="0" />
        <mxCell id="Brb8-mD9N2KLEKnw9XJb-8" value="Direct Load " style="text;html=1;align=center;verticalAlign=middle;whiteSpace=wrap;rounded=0;" parent="1" vertex="1">
          <mxGeometry x="-1230" y="205" width="190" height="30" as="geometry" />
        </mxCell>
        <mxCell id="Brb8-mD9N2KLEKnw9XJb-24" value="" style="edgeStyle=orthogonalEdgeStyle;rounded=0;orthogonalLoop=1;jettySize=auto;html=1;" parent="1" source="Brb8-mD9N2KLEKnw9XJb-11" target="Brb8-mD9N2KLEKnw9XJb-23" edge="1">
          <mxGeometry relative="1" as="geometry" />
        </mxCell>
        <mxCell id="Brb8-mD9N2KLEKnw9XJb-11" value="&lt;div&gt;Patientbatch+&lt;/div&gt;&lt;div&gt;Attribute Groups &lt;/div&gt;" style="shape=parallelogram;perimeter=parallelogramPerimeter;whiteSpace=wrap;html=1;fixedSize=1;" parent="1" vertex="1">
          <mxGeometry x="-1210" y="280" width="120" height="60" as="geometry" />
        </mxCell>
        <mxCell id="Brb8-mD9N2KLEKnw9XJb-34" value="" style="edgeStyle=orthogonalEdgeStyle;rounded=0;orthogonalLoop=1;jettySize=auto;html=1;" parent="1" source="Brb8-mD9N2KLEKnw9XJb-14" target="Brb8-mD9N2KLEKnw9XJb-30" edge="1">
          <mxGeometry relative="1" as="geometry" />
        </mxCell>
        <mxCell id="Brb8-mD9N2KLEKnw9XJb-46" value="&lt;div&gt;yes&lt;/div&gt;&lt;div&gt;&lt;br&gt;&lt;/div&gt;" style="edgeLabel;html=1;align=center;verticalAlign=middle;resizable=0;points=[];" parent="Brb8-mD9N2KLEKnw9XJb-34" connectable="0" vertex="1">
          <mxGeometry x="-0.3983" y="-1" relative="1" as="geometry">
            <mxPoint x="5" y="-21" as="offset" />
          </mxGeometry>
        </mxCell>
        <mxCell id="Brb8-mD9N2KLEKnw9XJb-53" style="edgeStyle=orthogonalEdgeStyle;rounded=0;orthogonalLoop=1;jettySize=auto;html=1;entryX=0.5;entryY=1;entryDx=0;entryDy=0;" parent="1" source="Brb8-mD9N2KLEKnw9XJb-14" target="Brb8-mD9N2KLEKnw9XJb-26" edge="1">
          <mxGeometry relative="1" as="geometry" />
        </mxCell>
        <mxCell id="Brb8-mD9N2KLEKnw9XJb-54" value="no" style="edgeLabel;html=1;align=center;verticalAlign=middle;resizable=0;points=[];" parent="Brb8-mD9N2KLEKnw9XJb-53" connectable="0" vertex="1">
          <mxGeometry x="0.1081" relative="1" as="geometry">
            <mxPoint x="10" as="offset" />
          </mxGeometry>
        </mxCell>
        <mxCell id="Brb8-mD9N2KLEKnw9XJb-14" value="&lt;div&gt;Does Resource match&lt;/div&gt;&lt;div&gt;&amp;nbsp;Must Haves&lt;br&gt;&lt;/div&gt;" style="rhombus;whiteSpace=wrap;html=1;" parent="1" vertex="1">
          <mxGeometry x="-710" y="250" width="140" height="120" as="geometry" />
        </mxCell>
        <mxCell id="Brb8-mD9N2KLEKnw9XJb-31" value="" style="edgeStyle=orthogonalEdgeStyle;rounded=0;orthogonalLoop=1;jettySize=auto;html=1;" parent="1" source="Brb8-mD9N2KLEKnw9XJb-21" target="Brb8-mD9N2KLEKnw9XJb-14" edge="1">
          <mxGeometry relative="1" as="geometry" />
        </mxCell>
        <mxCell id="Brb8-mD9N2KLEKnw9XJb-21" value="Execute Query for Batch" style="rounded=0;whiteSpace=wrap;html=1;" parent="1" vertex="1">
          <mxGeometry x="-850" y="280" width="120" height="60" as="geometry" />
        </mxCell>
        <mxCell id="Brb8-mD9N2KLEKnw9XJb-25" value="" style="edgeStyle=orthogonalEdgeStyle;rounded=0;orthogonalLoop=1;jettySize=auto;html=1;" parent="1" source="Brb8-mD9N2KLEKnw9XJb-23" target="Brb8-mD9N2KLEKnw9XJb-21" edge="1">
          <mxGeometry relative="1" as="geometry" />
        </mxCell>
        <mxCell id="Brb8-mD9N2KLEKnw9XJb-51" value="no" style="edgeLabel;html=1;align=center;verticalAlign=middle;resizable=0;points=[];" parent="Brb8-mD9N2KLEKnw9XJb-25" connectable="0" vertex="1">
          <mxGeometry x="0.777" y="-2" relative="1" as="geometry">
            <mxPoint x="-26" y="8" as="offset" />
          </mxGeometry>
        </mxCell>
        <mxCell id="Brb8-mD9N2KLEKnw9XJb-50" value="" style="edgeStyle=orthogonalEdgeStyle;rounded=0;orthogonalLoop=1;jettySize=auto;html=1;" parent="1" source="Brb8-mD9N2KLEKnw9XJb-23" target="Brb8-mD9N2KLEKnw9XJb-49" edge="1">
          <mxGeometry relative="1" as="geometry" />
        </mxCell>
        <mxCell id="Brb8-mD9N2KLEKnw9XJb-52" value="yes" style="edgeLabel;html=1;align=center;verticalAlign=middle;resizable=0;points=[];" parent="Brb8-mD9N2KLEKnw9XJb-50" connectable="0" vertex="1">
          <mxGeometry x="-0.5152" y="-2" relative="1" as="geometry">
            <mxPoint x="22" as="offset" />
          </mxGeometry>
        </mxCell>
        <mxCell id="Brb8-mD9N2KLEKnw9XJb-23" value="&lt;div&gt;All Attribute Groups Processed?&lt;/div&gt;" style="rhombus;whiteSpace=wrap;html=1;" parent="1" vertex="1">
          <mxGeometry x="-1030" y="250" width="140" height="120" as="geometry" />
        </mxCell>
        <mxCell id="Brb8-mD9N2KLEKnw9XJb-37" value="" style="edgeStyle=orthogonalEdgeStyle;rounded=0;orthogonalLoop=1;jettySize=auto;html=1;" parent="1" source="Brb8-mD9N2KLEKnw9XJb-26" target="Brb8-mD9N2KLEKnw9XJb-36" edge="1">
          <mxGeometry relative="1" as="geometry" />
        </mxCell>
        <mxCell id="Brb8-mD9N2KLEKnw9XJb-26" value="Throw away resource" style="rounded=0;whiteSpace=wrap;html=1;" parent="1" vertex="1">
          <mxGeometry x="-700" y="70" width="120" height="60" as="geometry" />
        </mxCell>
        <mxCell id="Brb8-mD9N2KLEKnw9XJb-48" style="edgeStyle=orthogonalEdgeStyle;rounded=0;orthogonalLoop=1;jettySize=auto;html=1;" parent="1" source="Brb8-mD9N2KLEKnw9XJb-30" edge="1">
          <mxGeometry relative="1" as="geometry">
            <mxPoint x="-960" y="100" as="targetPoint" />
            <Array as="points">
              <mxPoint x="-480" y="10" />
              <mxPoint x="-960" y="10" />
            </Array>
          </mxGeometry>
        </mxCell>
        <mxCell id="Brb8-mD9N2KLEKnw9XJb-30" value="Assign Attribute Group&amp;nbsp; to Resource" style="rounded=0;whiteSpace=wrap;html=1;" parent="1" vertex="1">
          <mxGeometry x="-520" y="280" width="120" height="60" as="geometry" />
        </mxCell>
        <mxCell id="Brb8-mD9N2KLEKnw9XJb-38" style="edgeStyle=orthogonalEdgeStyle;rounded=0;orthogonalLoop=1;jettySize=auto;html=1;" parent="1" source="Brb8-mD9N2KLEKnw9XJb-36" target="Brb8-mD9N2KLEKnw9XJb-23" edge="1">
          <mxGeometry relative="1" as="geometry" />
        </mxCell>
        <mxCell id="Brb8-mD9N2KLEKnw9XJb-39" value="No" style="edgeLabel;html=1;align=center;verticalAlign=middle;resizable=0;points=[];" parent="Brb8-mD9N2KLEKnw9XJb-38" connectable="0" vertex="1">
          <mxGeometry x="-0.2536" relative="1" as="geometry">
            <mxPoint x="35" y="10" as="offset" />
          </mxGeometry>
        </mxCell>
        <mxCell id="Brb8-mD9N2KLEKnw9XJb-41" value="" style="edgeStyle=orthogonalEdgeStyle;rounded=0;orthogonalLoop=1;jettySize=auto;html=1;" parent="1" source="Brb8-mD9N2KLEKnw9XJb-36" target="Brb8-mD9N2KLEKnw9XJb-40" edge="1">
          <mxGeometry relative="1" as="geometry" />
        </mxCell>
        <mxCell id="Brb8-mD9N2KLEKnw9XJb-134" value="yes" style="edgeLabel;html=1;align=center;verticalAlign=middle;resizable=0;points=[];" parent="Brb8-mD9N2KLEKnw9XJb-41" connectable="0" vertex="1">
          <mxGeometry x="-0.0074" y="3" relative="1" as="geometry">
            <mxPoint x="19" y="-2" as="offset" />
          </mxGeometry>
        </mxCell>
        <mxCell id="Brb8-mD9N2KLEKnw9XJb-36" value="Must Have Violated for Patient?" style="rhombus;whiteSpace=wrap;html=1;" parent="1" vertex="1">
          <mxGeometry x="-831.78" y="60" width="80" height="80" as="geometry" />
        </mxCell>
        <mxCell id="Brb8-mD9N2KLEKnw9XJb-43" style="edgeStyle=orthogonalEdgeStyle;rounded=0;orthogonalLoop=1;jettySize=auto;html=1;" parent="1" source="Brb8-mD9N2KLEKnw9XJb-40" edge="1">
          <mxGeometry relative="1" as="geometry">
            <mxPoint x="-960" y="235" as="targetPoint" />
          </mxGeometry>
        </mxCell>
        <mxCell id="Brb8-mD9N2KLEKnw9XJb-40" value="Drop all Patient Resources" style="rounded=0;whiteSpace=wrap;html=1;" parent="1" vertex="1">
          <mxGeometry x="-851.78" y="205" width="120" height="60" as="geometry" />
        </mxCell>
        <mxCell id="Brb8-mD9N2KLEKnw9XJb-49" value="Finish Assignment" style="ellipse;whiteSpace=wrap;html=1;" parent="1" vertex="1">
          <mxGeometry x="-1020" y="410" width="120" height="80" as="geometry" />
        </mxCell>
        <mxCell id="Brb8-mD9N2KLEKnw9XJb-80" value="Resolve References" style="text;html=1;align=center;verticalAlign=middle;whiteSpace=wrap;rounded=0;" parent="1" vertex="1">
          <mxGeometry x="-1700" y="955" width="190" height="30" as="geometry" />
        </mxCell>
        <mxCell id="Brb8-mD9N2KLEKnw9XJb-82" value="Resources" style="shape=parallelogram;perimeter=parallelogramPerimeter;whiteSpace=wrap;html=1;fixedSize=1;" parent="1" vertex="1">
          <mxGeometry x="-1680" y="1030" width="120" height="60" as="geometry" />
        </mxCell>
        <mxCell id="Brb8-mD9N2KLEKnw9XJb-83" value="" style="edgeStyle=orthogonalEdgeStyle;rounded=0;orthogonalLoop=1;jettySize=auto;html=1;" parent="1" source="Brb8-mD9N2KLEKnw9XJb-87" target="Brb8-mD9N2KLEKnw9XJb-98" edge="1">
          <mxGeometry relative="1" as="geometry" />
        </mxCell>
        <mxCell id="Brb8-mD9N2KLEKnw9XJb-84" value="&lt;div&gt;yes&lt;/div&gt;&lt;div&gt;&lt;br&gt;&lt;/div&gt;" style="edgeLabel;html=1;align=center;verticalAlign=middle;resizable=0;points=[];" parent="Brb8-mD9N2KLEKnw9XJb-83" connectable="0" vertex="1">
          <mxGeometry x="-0.3983" y="-1" relative="1" as="geometry">
            <mxPoint x="5" y="-21" as="offset" />
          </mxGeometry>
        </mxCell>
        <mxCell id="Brb8-mD9N2KLEKnw9XJb-85" style="edgeStyle=orthogonalEdgeStyle;rounded=0;orthogonalLoop=1;jettySize=auto;html=1;entryX=0.5;entryY=1;entryDx=0;entryDy=0;" parent="1" source="Brb8-mD9N2KLEKnw9XJb-87" target="Brb8-mD9N2KLEKnw9XJb-96" edge="1">
          <mxGeometry relative="1" as="geometry" />
        </mxCell>
        <mxCell id="Brb8-mD9N2KLEKnw9XJb-86" value="no" style="edgeLabel;html=1;align=center;verticalAlign=middle;resizable=0;points=[];" parent="Brb8-mD9N2KLEKnw9XJb-85" connectable="0" vertex="1">
          <mxGeometry x="0.1081" relative="1" as="geometry">
            <mxPoint x="10" as="offset" />
          </mxGeometry>
        </mxCell>
        <mxCell id="Brb8-mD9N2KLEKnw9XJb-87" value="Match Resource with a linked Attribute Groups (Filter,MustHaves)" style="rhombus;whiteSpace=wrap;html=1;" parent="1" vertex="1">
          <mxGeometry x="-490" y="1000" width="140" height="120" as="geometry" />
        </mxCell>
        <mxCell id="Brb8-mD9N2KLEKnw9XJb-109" value="" style="edgeStyle=orthogonalEdgeStyle;rounded=0;orthogonalLoop=1;jettySize=auto;html=1;" parent="1" source="Brb8-mD9N2KLEKnw9XJb-89" target="Brb8-mD9N2KLEKnw9XJb-108" edge="1">
          <mxGeometry relative="1" as="geometry" />
        </mxCell>
        <mxCell id="Brb8-mD9N2KLEKnw9XJb-89" value="Get Reference" style="rounded=0;whiteSpace=wrap;html=1;" parent="1" vertex="1">
          <mxGeometry x="-1145" y="1030" width="120" height="60" as="geometry" />
        </mxCell>
        <mxCell id="Brb8-mD9N2KLEKnw9XJb-90" value="" style="edgeStyle=orthogonalEdgeStyle;rounded=0;orthogonalLoop=1;jettySize=auto;html=1;" parent="1" source="Brb8-mD9N2KLEKnw9XJb-94" target="Brb8-mD9N2KLEKnw9XJb-89" edge="1">
          <mxGeometry relative="1" as="geometry" />
        </mxCell>
        <mxCell id="Brb8-mD9N2KLEKnw9XJb-91" value="no" style="edgeLabel;html=1;align=center;verticalAlign=middle;resizable=0;points=[];" parent="Brb8-mD9N2KLEKnw9XJb-90" connectable="0" vertex="1">
          <mxGeometry x="0.777" y="-2" relative="1" as="geometry">
            <mxPoint x="-26" y="8" as="offset" />
          </mxGeometry>
        </mxCell>
        <mxCell id="Brb8-mD9N2KLEKnw9XJb-92" value="" style="edgeStyle=orthogonalEdgeStyle;rounded=0;orthogonalLoop=1;jettySize=auto;html=1;" parent="1" source="Brb8-mD9N2KLEKnw9XJb-94" target="Brb8-mD9N2KLEKnw9XJb-105" edge="1">
          <mxGeometry relative="1" as="geometry" />
        </mxCell>
        <mxCell id="Brb8-mD9N2KLEKnw9XJb-93" value="yes" style="edgeLabel;html=1;align=center;verticalAlign=middle;resizable=0;points=[];" parent="Brb8-mD9N2KLEKnw9XJb-92" connectable="0" vertex="1">
          <mxGeometry x="-0.5152" y="-2" relative="1" as="geometry">
            <mxPoint x="22" as="offset" />
          </mxGeometry>
        </mxCell>
        <mxCell id="Brb8-mD9N2KLEKnw9XJb-94" value="&lt;div&gt;All References &lt;br&gt;&lt;/div&gt;&lt;div&gt;resolved?&lt;br&gt;&lt;/div&gt;" style="rhombus;whiteSpace=wrap;html=1;" parent="1" vertex="1">
          <mxGeometry x="-1320" y="1000" width="140" height="120" as="geometry" />
        </mxCell>
        <mxCell id="Brb8-mD9N2KLEKnw9XJb-95" value="" style="edgeStyle=orthogonalEdgeStyle;rounded=0;orthogonalLoop=1;jettySize=auto;html=1;" parent="1" source="Brb8-mD9N2KLEKnw9XJb-96" target="Brb8-mD9N2KLEKnw9XJb-102" edge="1">
          <mxGeometry relative="1" as="geometry" />
        </mxCell>
        <mxCell id="Brb8-mD9N2KLEKnw9XJb-96" value="Throw away resource" style="rounded=0;whiteSpace=wrap;html=1;" parent="1" vertex="1">
          <mxGeometry x="-480" y="665" width="120" height="60" as="geometry" />
        </mxCell>
        <mxCell id="Brb8-mD9N2KLEKnw9XJb-238" value="" style="edgeStyle=orthogonalEdgeStyle;rounded=0;orthogonalLoop=1;jettySize=auto;html=1;" parent="1" source="Brb8-mD9N2KLEKnw9XJb-98" target="Brb8-mD9N2KLEKnw9XJb-237" edge="1">
          <mxGeometry relative="1" as="geometry" />
        </mxCell>
        <mxCell id="Brb8-mD9N2KLEKnw9XJb-98" value="Assign Attribute Group to Resource" style="rounded=0;whiteSpace=wrap;html=1;" parent="1" vertex="1">
          <mxGeometry x="-300" y="1030" width="120" height="60" as="geometry" />
        </mxCell>
        <mxCell id="Brb8-mD9N2KLEKnw9XJb-99" style="edgeStyle=orthogonalEdgeStyle;rounded=0;orthogonalLoop=1;jettySize=auto;html=1;" parent="1" source="Brb8-mD9N2KLEKnw9XJb-102" target="Brb8-mD9N2KLEKnw9XJb-94" edge="1">
          <mxGeometry relative="1" as="geometry" />
        </mxCell>
        <mxCell id="Brb8-mD9N2KLEKnw9XJb-100" value="No" style="edgeLabel;html=1;align=center;verticalAlign=middle;resizable=0;points=[];" parent="Brb8-mD9N2KLEKnw9XJb-99" connectable="0" vertex="1">
          <mxGeometry x="-0.2536" relative="1" as="geometry">
            <mxPoint y="30" as="offset" />
          </mxGeometry>
        </mxCell>
        <mxCell id="Brb8-mD9N2KLEKnw9XJb-138" value="no" style="edgeLabel;html=1;align=center;verticalAlign=middle;resizable=0;points=[];" parent="Brb8-mD9N2KLEKnw9XJb-99" connectable="0" vertex="1">
          <mxGeometry x="-0.7435" y="1" relative="1" as="geometry">
            <mxPoint y="14" as="offset" />
          </mxGeometry>
        </mxCell>
        <mxCell id="Brb8-mD9N2KLEKnw9XJb-139" value="" style="edgeStyle=orthogonalEdgeStyle;rounded=0;orthogonalLoop=1;jettySize=auto;html=1;" parent="1" source="Brb8-mD9N2KLEKnw9XJb-102" target="Brb8-mD9N2KLEKnw9XJb-137" edge="1">
          <mxGeometry relative="1" as="geometry" />
        </mxCell>
        <mxCell id="Brb8-mD9N2KLEKnw9XJb-102" value="Is the reference must have?" style="rhombus;whiteSpace=wrap;html=1;" parent="1" vertex="1">
          <mxGeometry x="-1132.67" y="650" width="101.78" height="90" as="geometry" />
        </mxCell>
        <mxCell id="Brb8-mD9N2KLEKnw9XJb-103" style="edgeStyle=orthogonalEdgeStyle;rounded=0;orthogonalLoop=1;jettySize=auto;html=1;" parent="1" source="Brb8-mD9N2KLEKnw9XJb-104" edge="1">
          <mxGeometry relative="1" as="geometry">
            <mxPoint x="-1250" y="985" as="targetPoint" />
          </mxGeometry>
        </mxCell>
        <mxCell id="Brb8-mD9N2KLEKnw9XJb-104" value="Mark Source of reference resource to be deleted" style="rounded=0;whiteSpace=wrap;html=1;" parent="1" vertex="1">
          <mxGeometry x="-1141.78" y="955" width="120" height="60" as="geometry" />
        </mxCell>
        <mxCell id="Brb8-mD9N2KLEKnw9XJb-105" value="Finish Resolving" style="ellipse;whiteSpace=wrap;html=1;" parent="1" vertex="1">
          <mxGeometry x="-1310" y="1160" width="120" height="80" as="geometry" />
        </mxCell>
        <mxCell id="Brb8-mD9N2KLEKnw9XJb-107" value="" style="edgeStyle=orthogonalEdgeStyle;rounded=0;orthogonalLoop=1;jettySize=auto;html=1;" parent="1" source="Brb8-mD9N2KLEKnw9XJb-106" target="Brb8-mD9N2KLEKnw9XJb-94" edge="1">
          <mxGeometry relative="1" as="geometry" />
        </mxCell>
        <mxCell id="Brb8-mD9N2KLEKnw9XJb-106" value="Extract References" style="rounded=0;whiteSpace=wrap;html=1;" parent="1" vertex="1">
          <mxGeometry x="-1500" y="1030" width="120" height="60" as="geometry" />
        </mxCell>
        <mxCell id="Brb8-mD9N2KLEKnw9XJb-111" value="" style="edgeStyle=orthogonalEdgeStyle;rounded=0;orthogonalLoop=1;jettySize=auto;html=1;" parent="1" source="Brb8-mD9N2KLEKnw9XJb-108" target="Brb8-mD9N2KLEKnw9XJb-110" edge="1">
          <mxGeometry relative="1" as="geometry" />
        </mxCell>
        <mxCell id="Brb8-mD9N2KLEKnw9XJb-123" value="no" style="edgeLabel;html=1;align=center;verticalAlign=middle;resizable=0;points=[];" parent="Brb8-mD9N2KLEKnw9XJb-111" connectable="0" vertex="1">
          <mxGeometry x="-0.6974" relative="1" as="geometry">
            <mxPoint x="2" y="-20" as="offset" />
          </mxGeometry>
        </mxCell>
        <mxCell id="Brb8-mD9N2KLEKnw9XJb-114" value="" style="edgeStyle=orthogonalEdgeStyle;rounded=0;orthogonalLoop=1;jettySize=auto;html=1;entryX=0.5;entryY=0;entryDx=0;entryDy=0;" parent="1" source="Brb8-mD9N2KLEKnw9XJb-108" target="Brb8-mD9N2KLEKnw9XJb-127" edge="1">
          <mxGeometry relative="1" as="geometry">
            <mxPoint x="-920" y="1160" as="targetPoint" />
          </mxGeometry>
        </mxCell>
        <mxCell id="Brb8-mD9N2KLEKnw9XJb-115" value="yes" style="edgeLabel;html=1;align=center;verticalAlign=middle;resizable=0;points=[];" parent="Brb8-mD9N2KLEKnw9XJb-114" connectable="0" vertex="1">
          <mxGeometry x="0.1783" y="3" relative="1" as="geometry">
            <mxPoint x="17" y="-3" as="offset" />
          </mxGeometry>
        </mxCell>
        <mxCell id="Brb8-mD9N2KLEKnw9XJb-108" value="Reference loaded" style="rhombus;whiteSpace=wrap;html=1;" parent="1" vertex="1">
          <mxGeometry x="-990" y="1000" width="140" height="120" as="geometry" />
        </mxCell>
        <mxCell id="Brb8-mD9N2KLEKnw9XJb-117" value="" style="edgeStyle=orthogonalEdgeStyle;rounded=0;orthogonalLoop=1;jettySize=auto;html=1;" parent="1" source="Brb8-mD9N2KLEKnw9XJb-110" target="Brb8-mD9N2KLEKnw9XJb-116" edge="1">
          <mxGeometry relative="1" as="geometry" />
        </mxCell>
        <mxCell id="Brb8-mD9N2KLEKnw9XJb-110" value="Fetch Resource" style="whiteSpace=wrap;html=1;" parent="1" vertex="1">
          <mxGeometry x="-820" y="1030" width="120" height="60" as="geometry" />
        </mxCell>
        <mxCell id="Brb8-mD9N2KLEKnw9XJb-119" value="" style="edgeStyle=orthogonalEdgeStyle;rounded=0;orthogonalLoop=1;jettySize=auto;html=1;" parent="1" source="Brb8-mD9N2KLEKnw9XJb-116" target="Brb8-mD9N2KLEKnw9XJb-118" edge="1">
          <mxGeometry relative="1" as="geometry" />
        </mxCell>
        <mxCell id="Brb8-mD9N2KLEKnw9XJb-124" value="" style="edgeStyle=orthogonalEdgeStyle;rounded=0;orthogonalLoop=1;jettySize=auto;html=1;" parent="1" source="Brb8-mD9N2KLEKnw9XJb-116" target="Brb8-mD9N2KLEKnw9XJb-87" edge="1">
          <mxGeometry relative="1" as="geometry" />
        </mxCell>
        <mxCell id="Brb8-mD9N2KLEKnw9XJb-125" value="yes" style="edgeLabel;html=1;align=center;verticalAlign=middle;resizable=0;points=[];" parent="Brb8-mD9N2KLEKnw9XJb-124" connectable="0" vertex="1">
          <mxGeometry x="-0.8058" y="-3" relative="1" as="geometry">
            <mxPoint y="-33" as="offset" />
          </mxGeometry>
        </mxCell>
        <mxCell id="Brb8-mD9N2KLEKnw9XJb-116" value="Fetch sucessful" style="rhombus;whiteSpace=wrap;html=1;" parent="1" vertex="1">
          <mxGeometry x="-650" y="1000" width="140" height="120" as="geometry" />
        </mxCell>
        <mxCell id="Brb8-mD9N2KLEKnw9XJb-135" style="edgeStyle=orthogonalEdgeStyle;rounded=0;orthogonalLoop=1;jettySize=auto;html=1;" parent="1" source="Brb8-mD9N2KLEKnw9XJb-118" edge="1">
          <mxGeometry relative="1" as="geometry">
            <mxPoint x="-580" y="695" as="targetPoint" />
          </mxGeometry>
        </mxCell>
        <mxCell id="Brb8-mD9N2KLEKnw9XJb-118" value="Set Data Absent Reason in Source Resource " style="whiteSpace=wrap;html=1;" parent="1" vertex="1">
          <mxGeometry x="-640" y="735" width="120" height="60" as="geometry" />
        </mxCell>
        <mxCell id="Brb8-mD9N2KLEKnw9XJb-130" style="edgeStyle=orthogonalEdgeStyle;rounded=0;orthogonalLoop=1;jettySize=auto;html=1;entryX=0.5;entryY=1;entryDx=0;entryDy=0;" parent="1" source="Brb8-mD9N2KLEKnw9XJb-127" target="Brb8-mD9N2KLEKnw9XJb-98" edge="1">
          <mxGeometry relative="1" as="geometry" />
        </mxCell>
        <mxCell id="Brb8-mD9N2KLEKnw9XJb-131" value="yes" style="edgeLabel;html=1;align=center;verticalAlign=middle;resizable=0;points=[];" parent="Brb8-mD9N2KLEKnw9XJb-130" connectable="0" vertex="1">
          <mxGeometry x="-0.7601" y="-1" relative="1" as="geometry">
            <mxPoint x="82" y="-21" as="offset" />
          </mxGeometry>
        </mxCell>
        <mxCell id="Brb8-mD9N2KLEKnw9XJb-127" value="Match Resource with a linked Attribute Groups (Filter,MustHaves)" style="rhombus;whiteSpace=wrap;html=1;" parent="1" vertex="1">
          <mxGeometry x="-990" y="1170" width="140" height="120" as="geometry" />
        </mxCell>
        <mxCell id="Brb8-mD9N2KLEKnw9XJb-142" style="edgeStyle=orthogonalEdgeStyle;rounded=0;orthogonalLoop=1;jettySize=auto;html=1;" parent="1" source="Brb8-mD9N2KLEKnw9XJb-137" edge="1">
          <mxGeometry relative="1" as="geometry">
            <mxPoint x="-1250" y="815" as="targetPoint" />
            <Array as="points">
              <mxPoint x="-1190" y="815" />
              <mxPoint x="-1190" y="815" />
            </Array>
          </mxGeometry>
        </mxCell>
        <mxCell id="Brb8-mD9N2KLEKnw9XJb-143" value="no" style="edgeLabel;html=1;align=center;verticalAlign=middle;resizable=0;points=[];" parent="Brb8-mD9N2KLEKnw9XJb-142" connectable="0" vertex="1">
          <mxGeometry x="0.071" y="2" relative="1" as="geometry">
            <mxPoint x="15" y="23" as="offset" />
          </mxGeometry>
        </mxCell>
        <mxCell id="qXSFNuCbwQx_Ih3ncW2b-2" style="edgeStyle=orthogonalEdgeStyle;rounded=0;orthogonalLoop=1;jettySize=auto;html=1;entryX=0.5;entryY=0;entryDx=0;entryDy=0;" parent="1" source="Brb8-mD9N2KLEKnw9XJb-137" target="Brb8-mD9N2KLEKnw9XJb-104" edge="1">
          <mxGeometry relative="1" as="geometry" />
        </mxCell>
        <mxCell id="qXSFNuCbwQx_Ih3ncW2b-3" value="yes" style="edgeLabel;html=1;align=center;verticalAlign=middle;resizable=0;points=[];" parent="qXSFNuCbwQx_Ih3ncW2b-2" connectable="0" vertex="1">
          <mxGeometry x="-0.1308" y="-2" relative="1" as="geometry">
            <mxPoint x="34" y="-11" as="offset" />
          </mxGeometry>
        </mxCell>
        <mxCell id="Brb8-mD9N2KLEKnw9XJb-137" value="Are no references resolvable" style="rhombus;whiteSpace=wrap;html=1;" parent="1" vertex="1">
          <mxGeometry x="-1132.67" y="770" width="101.78" height="90" as="geometry" />
        </mxCell>
        <mxCell id="Brb8-mD9N2KLEKnw9XJb-186" value="Cascading Delete" style="text;html=1;align=center;verticalAlign=middle;whiteSpace=wrap;rounded=0;" parent="1" vertex="1">
          <mxGeometry x="-1300" y="1415" width="190" height="30" as="geometry" />
        </mxCell>
        <mxCell id="Brb8-mD9N2KLEKnw9XJb-235" value="" style="edgeStyle=orthogonalEdgeStyle;rounded=0;orthogonalLoop=1;jettySize=auto;html=1;" parent="1" source="Brb8-mD9N2KLEKnw9XJb-188" target="Brb8-mD9N2KLEKnw9XJb-200" edge="1">
          <mxGeometry relative="1" as="geometry" />
        </mxCell>
        <mxCell id="Brb8-mD9N2KLEKnw9XJb-188" value="Resources" style="shape=parallelogram;perimeter=parallelogramPerimeter;whiteSpace=wrap;html=1;fixedSize=1;" parent="1" vertex="1">
          <mxGeometry x="-1260" y="1500" width="120" height="60" as="geometry" />
        </mxCell>
        <mxCell id="Brb8-mD9N2KLEKnw9XJb-194" value="" style="edgeStyle=orthogonalEdgeStyle;rounded=0;orthogonalLoop=1;jettySize=auto;html=1;" parent="1" source="Brb8-mD9N2KLEKnw9XJb-195" target="Brb8-mD9N2KLEKnw9XJb-218" edge="1">
          <mxGeometry relative="1" as="geometry" />
        </mxCell>
        <mxCell id="Brb8-mD9N2KLEKnw9XJb-195" value="Delete Resource" style="rounded=0;whiteSpace=wrap;html=1;" parent="1" vertex="1">
          <mxGeometry x="-915" y="1500" width="120" height="60" as="geometry" />
        </mxCell>
        <mxCell id="Brb8-mD9N2KLEKnw9XJb-196" value="" style="edgeStyle=orthogonalEdgeStyle;rounded=0;orthogonalLoop=1;jettySize=auto;html=1;" parent="1" source="Brb8-mD9N2KLEKnw9XJb-200" target="Brb8-mD9N2KLEKnw9XJb-195" edge="1">
          <mxGeometry relative="1" as="geometry" />
        </mxCell>
        <mxCell id="Brb8-mD9N2KLEKnw9XJb-197" value="no" style="edgeLabel;html=1;align=center;verticalAlign=middle;resizable=0;points=[];" parent="Brb8-mD9N2KLEKnw9XJb-196" connectable="0" vertex="1">
          <mxGeometry x="0.777" y="-2" relative="1" as="geometry">
            <mxPoint x="-26" y="8" as="offset" />
          </mxGeometry>
        </mxCell>
        <mxCell id="Brb8-mD9N2KLEKnw9XJb-198" value="" style="edgeStyle=orthogonalEdgeStyle;rounded=0;orthogonalLoop=1;jettySize=auto;html=1;" parent="1" source="Brb8-mD9N2KLEKnw9XJb-200" target="Brb8-mD9N2KLEKnw9XJb-211" edge="1">
          <mxGeometry relative="1" as="geometry" />
        </mxCell>
        <mxCell id="Brb8-mD9N2KLEKnw9XJb-199" value="no" style="edgeLabel;html=1;align=center;verticalAlign=middle;resizable=0;points=[];" parent="Brb8-mD9N2KLEKnw9XJb-198" connectable="0" vertex="1">
          <mxGeometry x="-0.5152" y="-2" relative="1" as="geometry">
            <mxPoint x="22" as="offset" />
          </mxGeometry>
        </mxCell>
        <mxCell id="Brb8-mD9N2KLEKnw9XJb-200" value="Any Resources marked for Deletion" style="rhombus;whiteSpace=wrap;html=1;" parent="1" vertex="1">
          <mxGeometry x="-1090" y="1470" width="140" height="120" as="geometry" />
        </mxCell>
        <mxCell id="Brb8-mD9N2KLEKnw9XJb-245" style="edgeStyle=orthogonalEdgeStyle;rounded=0;orthogonalLoop=1;jettySize=auto;html=1;" parent="1" source="Brb8-mD9N2KLEKnw9XJb-203" edge="1">
          <mxGeometry relative="1" as="geometry">
            <mxPoint x="-700.0000000000002" y="1450" as="targetPoint" />
            <Array as="points">
              <mxPoint x="-200" y="1450" />
            </Array>
          </mxGeometry>
        </mxCell>
        <mxCell id="Brb8-mD9N2KLEKnw9XJb-203" value="Mark Resource for deletion" style="rounded=0;whiteSpace=wrap;html=1;" parent="1" vertex="1">
          <mxGeometry x="-410" y="1610" width="120" height="60" as="geometry" />
        </mxCell>
        <mxCell id="Brb8-mD9N2KLEKnw9XJb-211" value="Finish Deletion" style="ellipse;whiteSpace=wrap;html=1;" parent="1" vertex="1">
          <mxGeometry x="-1080" y="1630" width="120" height="80" as="geometry" />
        </mxCell>
        <mxCell id="Brb8-mD9N2KLEKnw9XJb-214" value="" style="edgeStyle=orthogonalEdgeStyle;rounded=0;orthogonalLoop=1;jettySize=auto;html=1;" parent="1" source="Brb8-mD9N2KLEKnw9XJb-218" target="Brb8-mD9N2KLEKnw9XJb-220" edge="1">
          <mxGeometry relative="1" as="geometry" />
        </mxCell>
        <mxCell id="Brb8-mD9N2KLEKnw9XJb-215" value="yes" style="edgeLabel;html=1;align=center;verticalAlign=middle;resizable=0;points=[];" parent="Brb8-mD9N2KLEKnw9XJb-214" connectable="0" vertex="1">
          <mxGeometry x="-0.6974" relative="1" as="geometry">
            <mxPoint x="2" y="-20" as="offset" />
          </mxGeometry>
        </mxCell>
        <mxCell id="Brb8-mD9N2KLEKnw9XJb-240" style="edgeStyle=orthogonalEdgeStyle;rounded=0;orthogonalLoop=1;jettySize=auto;html=1;entryX=0.5;entryY=0;entryDx=0;entryDy=0;" parent="1" source="Brb8-mD9N2KLEKnw9XJb-218" target="Brb8-mD9N2KLEKnw9XJb-200" edge="1">
          <mxGeometry relative="1" as="geometry">
            <Array as="points">
              <mxPoint x="-700" y="1450" />
              <mxPoint x="-1020" y="1450" />
            </Array>
          </mxGeometry>
        </mxCell>
        <mxCell id="Brb8-mD9N2KLEKnw9XJb-241" value="no" style="edgeLabel;html=1;align=center;verticalAlign=middle;resizable=0;points=[];" parent="Brb8-mD9N2KLEKnw9XJb-240" connectable="0" vertex="1">
          <mxGeometry x="-0.3488" y="-1" relative="1" as="geometry">
            <mxPoint x="-53" y="-29" as="offset" />
          </mxGeometry>
        </mxCell>
        <mxCell id="Brb8-mD9N2KLEKnw9XJb-218" value="Resource Referenced?" style="rhombus;whiteSpace=wrap;html=1;" parent="1" vertex="1">
          <mxGeometry x="-770" y="1470" width="140" height="120" as="geometry" />
        </mxCell>
        <mxCell id="Brb8-mD9N2KLEKnw9XJb-219" value="" style="edgeStyle=orthogonalEdgeStyle;rounded=0;orthogonalLoop=1;jettySize=auto;html=1;" parent="1" source="Brb8-mD9N2KLEKnw9XJb-220" target="Brb8-mD9N2KLEKnw9XJb-224" edge="1">
          <mxGeometry relative="1" as="geometry" />
        </mxCell>
        <mxCell id="Brb8-mD9N2KLEKnw9XJb-220" value="Load References" style="whiteSpace=wrap;html=1;" parent="1" vertex="1">
          <mxGeometry x="-590" y="1500" width="120" height="60" as="geometry" />
        </mxCell>
        <mxCell id="Brb8-mD9N2KLEKnw9XJb-246" value="" style="edgeStyle=orthogonalEdgeStyle;rounded=0;orthogonalLoop=1;jettySize=auto;html=1;" parent="1" source="Brb8-mD9N2KLEKnw9XJb-224" target="Brb8-mD9N2KLEKnw9XJb-203" edge="1">
          <mxGeometry relative="1" as="geometry" />
        </mxCell>
        <mxCell id="Brb8-mD9N2KLEKnw9XJb-247" style="edgeStyle=orthogonalEdgeStyle;rounded=0;orthogonalLoop=1;jettySize=auto;html=1;" parent="1" source="Brb8-mD9N2KLEKnw9XJb-224" edge="1">
          <mxGeometry relative="1" as="geometry">
            <mxPoint x="-200" y="1530" as="targetPoint" />
          </mxGeometry>
        </mxCell>
        <mxCell id="Brb8-mD9N2KLEKnw9XJb-248" value="no" style="edgeLabel;html=1;align=center;verticalAlign=middle;resizable=0;points=[];" parent="Brb8-mD9N2KLEKnw9XJb-247" connectable="0" vertex="1">
          <mxGeometry x="-0.0559" y="-2" relative="1" as="geometry">
            <mxPoint y="-12" as="offset" />
          </mxGeometry>
        </mxCell>
        <mxCell id="Brb8-mD9N2KLEKnw9XJb-249" value="" style="edgeStyle=orthogonalEdgeStyle;rounded=0;orthogonalLoop=1;jettySize=auto;html=1;" parent="1" source="Brb8-mD9N2KLEKnw9XJb-224" target="Brb8-mD9N2KLEKnw9XJb-203" edge="1">
          <mxGeometry relative="1" as="geometry" />
        </mxCell>
        <mxCell id="Brb8-mD9N2KLEKnw9XJb-250" value="yes" style="edgeLabel;html=1;align=center;verticalAlign=middle;resizable=0;points=[];" parent="Brb8-mD9N2KLEKnw9XJb-249" connectable="0" vertex="1">
          <mxGeometry x="0.8167" y="2" relative="1" as="geometry">
            <mxPoint x="18" y="-14" as="offset" />
          </mxGeometry>
        </mxCell>
        <mxCell id="Brb8-mD9N2KLEKnw9XJb-224" value="Any Reference Must Have violated" style="rhombus;whiteSpace=wrap;html=1;" parent="1" vertex="1">
          <mxGeometry x="-420" y="1470" width="140" height="120" as="geometry" />
        </mxCell>
        <mxCell id="Brb8-mD9N2KLEKnw9XJb-251" style="edgeStyle=orthogonalEdgeStyle;rounded=0;orthogonalLoop=1;jettySize=auto;html=1;" parent="1" source="Brb8-mD9N2KLEKnw9XJb-237" edge="1">
          <mxGeometry relative="1" as="geometry">
            <mxPoint x="-1250" y="700" as="targetPoint" />
            <Array as="points">
              <mxPoint x="-240" y="550" />
              <mxPoint x="-1249" y="550" />
              <mxPoint x="-1249" y="700" />
            </Array>
          </mxGeometry>
        </mxCell>
        <mxCell id="Brb8-mD9N2KLEKnw9XJb-237" value="Remove mark for deletion" style="rounded=0;whiteSpace=wrap;html=1;" parent="1" vertex="1">
          <mxGeometry x="-300" y="890" width="120" height="60" as="geometry" />
        </mxCell>
        <mxCell id="Brb8-mD9N2KLEKnw9XJb-252" value="" style="edgeStyle=orthogonalEdgeStyle;rounded=0;orthogonalLoop=1;jettySize=auto;html=1;" parent="1" source="Brb8-mD9N2KLEKnw9XJb-256" target="Brb8-mD9N2KLEKnw9XJb-257" edge="1">
          <mxGeometry relative="1" as="geometry" />
        </mxCell>
        <mxCell id="Brb8-mD9N2KLEKnw9XJb-253" value="&lt;div&gt;no&lt;/div&gt;&lt;div&gt;&lt;br&gt;&lt;/div&gt;" style="edgeLabel;html=1;align=center;verticalAlign=middle;resizable=0;points=[];rotation=90;" parent="Brb8-mD9N2KLEKnw9XJb-252" connectable="0" vertex="1">
          <mxGeometry x="0.4" y="-1" relative="1" as="geometry">
            <mxPoint x="-31" y="1" as="offset" />
          </mxGeometry>
        </mxCell>
        <mxCell id="Brb8-mD9N2KLEKnw9XJb-254" value="" style="edgeStyle=orthogonalEdgeStyle;rounded=0;orthogonalLoop=1;jettySize=auto;html=1;" parent="1" source="Brb8-mD9N2KLEKnw9XJb-256" target="Brb8-mD9N2KLEKnw9XJb-261" edge="1">
          <mxGeometry relative="1" as="geometry" />
        </mxCell>
        <mxCell id="Brb8-mD9N2KLEKnw9XJb-255" value="yes" style="edgeLabel;html=1;align=center;verticalAlign=middle;resizable=0;points=[];" parent="Brb8-mD9N2KLEKnw9XJb-254" connectable="0" vertex="1">
          <mxGeometry x="-0.05" y="-2" relative="1" as="geometry">
            <mxPoint x="-9" y="18" as="offset" />
          </mxGeometry>
        </mxCell>
        <mxCell id="Brb8-mD9N2KLEKnw9XJb-256" value="&lt;div&gt;all profiles and&amp;nbsp;&lt;/div&gt;&lt;div&gt;attributes, referenced attribute groups?&lt;/div&gt;" style="rhombus;whiteSpace=wrap;html=1;" parent="1" vertex="1">
          <mxGeometry x="-1120" y="-1270" width="140" height="120" as="geometry" />
        </mxCell>
        <mxCell id="Brb8-mD9N2KLEKnw9XJb-257" value="Error" style="ellipse;whiteSpace=wrap;html=1;" parent="1" vertex="1">
          <mxGeometry x="-1090" y="-1125" width="80" height="50" as="geometry" />
        </mxCell>
        <mxCell id="Brb8-mD9N2KLEKnw9XJb-258" value="" style="edgeStyle=orthogonalEdgeStyle;rounded=0;orthogonalLoop=1;jettySize=auto;html=1;" parent="1" source="Brb8-mD9N2KLEKnw9XJb-259" target="Brb8-mD9N2KLEKnw9XJb-264" edge="1">
          <mxGeometry relative="1" as="geometry" />
        </mxCell>
        <mxCell id="Brb8-mD9N2KLEKnw9XJb-259" value="&lt;div&gt;Execute Cohort&lt;/div&gt;" style="rounded=0;whiteSpace=wrap;html=1;" parent="1" vertex="1">
          <mxGeometry x="-780" y="-1240" width="120" height="60" as="geometry" />
        </mxCell>
        <mxCell id="Brb8-mD9N2KLEKnw9XJb-260" value="" style="edgeStyle=orthogonalEdgeStyle;rounded=0;orthogonalLoop=1;jettySize=auto;html=1;" parent="1" source="Brb8-mD9N2KLEKnw9XJb-261" target="Brb8-mD9N2KLEKnw9XJb-259" edge="1">
          <mxGeometry relative="1" as="geometry" />
        </mxCell>
        <mxCell id="Brb8-mD9N2KLEKnw9XJb-261" value="Get directly loaded Attribute Groups" style="rounded=0;whiteSpace=wrap;html=1;" parent="1" vertex="1">
          <mxGeometry x="-940" y="-1240" width="120" height="60" as="geometry" />
        </mxCell>
        <mxCell id="Brb8-mD9N2KLEKnw9XJb-262" value="" style="edgeStyle=orthogonalEdgeStyle;rounded=0;orthogonalLoop=1;jettySize=auto;html=1;" parent="1" source="Brb8-mD9N2KLEKnw9XJb-264" target="Brb8-mD9N2KLEKnw9XJb-266" edge="1">
          <mxGeometry relative="1" as="geometry" />
        </mxCell>
        <mxCell id="Brb8-mD9N2KLEKnw9XJb-263" value="" style="edgeStyle=orthogonalEdgeStyle;rounded=0;orthogonalLoop=1;jettySize=auto;html=1;" parent="1" source="Brb8-mD9N2KLEKnw9XJb-264" target="Brb8-mD9N2KLEKnw9XJb-268" edge="1">
          <mxGeometry relative="1" as="geometry" />
        </mxCell>
        <mxCell id="Brb8-mD9N2KLEKnw9XJb-264" value="Which method?" style="rhombus;whiteSpace=wrap;html=1;" parent="1" vertex="1">
          <mxGeometry x="-790" y="-1140" width="140" height="120" as="geometry" />
        </mxCell>
        <mxCell id="Brb8-mD9N2KLEKnw9XJb-265" style="edgeStyle=orthogonalEdgeStyle;rounded=0;orthogonalLoop=1;jettySize=auto;html=1;" parent="1" edge="1">
          <mxGeometry relative="1" as="geometry">
            <mxPoint x="-550" y="-1060" as="sourcePoint" />
            <mxPoint x="-660" y="-950" as="targetPoint" />
            <Array as="points">
              <mxPoint x="-550" y="-950" />
            </Array>
          </mxGeometry>
        </mxCell>
        <mxCell id="Brb8-mD9N2KLEKnw9XJb-266" value="Flare" style="rounded=0;whiteSpace=wrap;html=1;" parent="1" vertex="1">
          <mxGeometry x="-610" y="-1110" width="120" height="60" as="geometry" />
        </mxCell>
        <mxCell id="Brb8-mD9N2KLEKnw9XJb-267" style="edgeStyle=orthogonalEdgeStyle;rounded=0;orthogonalLoop=1;jettySize=auto;html=1;entryX=0;entryY=0.5;entryDx=0;entryDy=0;" parent="1" source="Brb8-mD9N2KLEKnw9XJb-268" target="Brb8-mD9N2KLEKnw9XJb-270" edge="1">
          <mxGeometry relative="1" as="geometry">
            <Array as="points">
              <mxPoint x="-880" y="-950" />
            </Array>
          </mxGeometry>
        </mxCell>
        <mxCell id="Brb8-mD9N2KLEKnw9XJb-268" value="CQL" style="rounded=0;whiteSpace=wrap;html=1;" parent="1" vertex="1">
          <mxGeometry x="-940" y="-1110" width="120" height="60" as="geometry" />
        </mxCell>
        <mxCell id="Brb8-mD9N2KLEKnw9XJb-269" value="" style="edgeStyle=orthogonalEdgeStyle;rounded=0;orthogonalLoop=1;jettySize=auto;html=1;" parent="1" source="Brb8-mD9N2KLEKnw9XJb-270" target="Brb8-mD9N2KLEKnw9XJb-272" edge="1">
          <mxGeometry relative="1" as="geometry" />
        </mxCell>
        <mxCell id="Brb8-mD9N2KLEKnw9XJb-270" value="Fetch Patients" style="rounded=0;whiteSpace=wrap;html=1;" parent="1" vertex="1">
          <mxGeometry x="-780" y="-980" width="120" height="60" as="geometry" />
        </mxCell>
        <mxCell id="Brb8-mD9N2KLEKnw9XJb-271" value="" style="edgeStyle=orthogonalEdgeStyle;rounded=0;orthogonalLoop=1;jettySize=auto;html=1;" parent="1" source="Brb8-mD9N2KLEKnw9XJb-272" target="Brb8-mD9N2KLEKnw9XJb-274" edge="1">
          <mxGeometry relative="1" as="geometry" />
        </mxCell>
        <mxCell id="Brb8-mD9N2KLEKnw9XJb-272" value="Fetch Resources&amp;nbsp; for directly Loaded Attribute Groups" style="rounded=0;whiteSpace=wrap;html=1;" parent="1" vertex="1">
          <mxGeometry x="-780" y="-880" width="120" height="60" as="geometry" />
        </mxCell>
        <mxCell id="Brb8-mD9N2KLEKnw9XJb-273" value="" style="edgeStyle=orthogonalEdgeStyle;rounded=0;orthogonalLoop=1;jettySize=auto;html=1;" parent="1" source="Brb8-mD9N2KLEKnw9XJb-274" target="Brb8-mD9N2KLEKnw9XJb-278" edge="1">
          <mxGeometry relative="1" as="geometry" />
        </mxCell>
        <mxCell id="Brb8-mD9N2KLEKnw9XJb-274" value="&lt;div&gt;Assign&amp;nbsp;&lt;/div&gt;&lt;div&gt;Attribute Groups to Resources &lt;/div&gt;" style="shape=process;whiteSpace=wrap;html=1;backgroundOutline=1;" parent="1" vertex="1">
          <mxGeometry x="-780" y="-780" width="120" height="60" as="geometry" />
        </mxCell>
        <mxCell id="Brb8-mD9N2KLEKnw9XJb-275" value="" style="edgeStyle=orthogonalEdgeStyle;rounded=0;orthogonalLoop=1;jettySize=auto;html=1;" parent="1" source="Brb8-mD9N2KLEKnw9XJb-276" target="Brb8-mD9N2KLEKnw9XJb-256" edge="1">
          <mxGeometry relative="1" as="geometry" />
        </mxCell>
        <mxCell id="Brb8-mD9N2KLEKnw9XJb-276" value="CRTDL" style="shape=parallelogram;perimeter=parallelogramPerimeter;whiteSpace=wrap;html=1;fixedSize=1;" parent="1" vertex="1">
          <mxGeometry x="-1290" y="-1240" width="120" height="60" as="geometry" />
        </mxCell>
        <mxCell id="Brb8-mD9N2KLEKnw9XJb-277" value="" style="edgeStyle=orthogonalEdgeStyle;rounded=0;orthogonalLoop=1;jettySize=auto;html=1;" parent="1" source="Brb8-mD9N2KLEKnw9XJb-278" target="Brb8-mD9N2KLEKnw9XJb-280" edge="1">
          <mxGeometry relative="1" as="geometry" />
        </mxCell>
        <mxCell id="Brb8-mD9N2KLEKnw9XJb-278" value="Resolve References" style="shape=process;whiteSpace=wrap;html=1;backgroundOutline=1;" parent="1" vertex="1">
          <mxGeometry x="-780" y="-680" width="120" height="60" as="geometry" />
        </mxCell>
        <mxCell id="Brb8-mD9N2KLEKnw9XJb-279" value="" style="edgeStyle=orthogonalEdgeStyle;rounded=0;orthogonalLoop=1;jettySize=auto;html=1;" parent="1" source="Brb8-mD9N2KLEKnw9XJb-280" target="Brb8-mD9N2KLEKnw9XJb-282" edge="1">
          <mxGeometry relative="1" as="geometry" />
        </mxCell>
        <mxCell id="Brb8-mD9N2KLEKnw9XJb-280" value="Cascading Delete" style="shape=process;whiteSpace=wrap;html=1;backgroundOutline=1;" parent="1" vertex="1">
          <mxGeometry x="-780" y="-580" width="120" height="60" as="geometry" />
        </mxCell>
        <mxCell id="Brb8-mD9N2KLEKnw9XJb-281" value="" style="edgeStyle=orthogonalEdgeStyle;rounded=0;orthogonalLoop=1;jettySize=auto;html=1;" parent="1" source="Brb8-mD9N2KLEKnw9XJb-282" target="Brb8-mD9N2KLEKnw9XJb-285" edge="1">
          <mxGeometry relative="1" as="geometry" />
        </mxCell>
        <mxCell id="Brb8-mD9N2KLEKnw9XJb-282" value="Extraction" style="shape=process;whiteSpace=wrap;html=1;backgroundOutline=1;" parent="1" vertex="1">
          <mxGeometry x="-780" y="-480" width="120" height="60" as="geometry" />
        </mxCell>
        <mxCell id="Brb8-mD9N2KLEKnw9XJb-283" value="Bundles" style="ellipse;whiteSpace=wrap;html=1;" parent="1" vertex="1">
          <mxGeometry x="-760" y="-280" width="80" height="80" as="geometry" />
        </mxCell>
        <mxCell id="Brb8-mD9N2KLEKnw9XJb-284" value="" style="edgeStyle=orthogonalEdgeStyle;rounded=0;orthogonalLoop=1;jettySize=auto;html=1;" parent="1" source="Brb8-mD9N2KLEKnw9XJb-285" target="Brb8-mD9N2KLEKnw9XJb-283" edge="1">
          <mxGeometry relative="1" as="geometry" />
        </mxCell>
        <mxCell id="Brb8-mD9N2KLEKnw9XJb-285" value="Write out Results" style="shape=process;whiteSpace=wrap;html=1;backgroundOutline=1;" parent="1" vertex="1">
          <mxGeometry x="-780" y="-380" width="120" height="60" as="geometry" />
        </mxCell>
        <mxCell id="Brb8-mD9N2KLEKnw9XJb-286" value="Extraction" style="text;html=1;align=center;verticalAlign=middle;whiteSpace=wrap;rounded=0;" parent="1" vertex="1">
          <mxGeometry x="-1550" y="1780" width="190" height="30" as="geometry" />
        </mxCell>
        <mxCell id="Brb8-mD9N2KLEKnw9XJb-287" value="" style="edgeStyle=orthogonalEdgeStyle;rounded=0;orthogonalLoop=1;jettySize=auto;html=1;" parent="1" source="Brb8-mD9N2KLEKnw9XJb-288" edge="1">
          <mxGeometry relative="1" as="geometry">
            <mxPoint x="-1340" y="1895" as="targetPoint" />
          </mxGeometry>
        </mxCell>
        <mxCell id="Brb8-mD9N2KLEKnw9XJb-288" value="Resources" style="shape=parallelogram;perimeter=parallelogramPerimeter;whiteSpace=wrap;html=1;fixedSize=1;" parent="1" vertex="1">
          <mxGeometry x="-1510" y="1865" width="120" height="60" as="geometry" />
        </mxCell>
        <mxCell id="Brb8-mD9N2KLEKnw9XJb-314" value="" style="edgeStyle=orthogonalEdgeStyle;rounded=0;orthogonalLoop=1;jettySize=auto;html=1;" parent="1" source="Brb8-mD9N2KLEKnw9XJb-312" target="Brb8-mD9N2KLEKnw9XJb-313" edge="1">
          <mxGeometry relative="1" as="geometry" />
        </mxCell>
        <mxCell id="Brb8-mD9N2KLEKnw9XJb-312" value="Merge Attribute Groups behaviour for extraction" style="rounded=0;whiteSpace=wrap;html=1;" parent="1" vertex="1">
          <mxGeometry x="-1340" y="1865" width="120" height="60" as="geometry" />
        </mxCell>
        <mxCell id="qXSFNuCbwQx_Ih3ncW2b-6" style="edgeStyle=orthogonalEdgeStyle;rounded=0;orthogonalLoop=1;jettySize=auto;html=1;entryX=0;entryY=0.5;entryDx=0;entryDy=0;" parent="1" source="Brb8-mD9N2KLEKnw9XJb-313" target="qXSFNuCbwQx_Ih3ncW2b-5" edge="1">
          <mxGeometry relative="1" as="geometry" />
        </mxCell>
        <mxCell id="Brb8-mD9N2KLEKnw9XJb-313" value="Copy Attributes" style="rounded=0;whiteSpace=wrap;html=1;" parent="1" vertex="1">
          <mxGeometry x="-1170" y="1865" width="120" height="60" as="geometry" />
        </mxCell>
        <mxCell id="Brb8-mD9N2KLEKnw9XJb-318" value="" style="edgeStyle=orthogonalEdgeStyle;rounded=0;orthogonalLoop=1;jettySize=auto;html=1;" parent="1" source="qXSFNuCbwQx_Ih3ncW2b-5" target="Brb8-mD9N2KLEKnw9XJb-317" edge="1">
          <mxGeometry relative="1" as="geometry">
            <mxPoint x="-890" y="1895" as="sourcePoint" />
          </mxGeometry>
        </mxCell>
        <mxCell id="Brb8-mD9N2KLEKnw9XJb-317" value="Finish Extraction" style="ellipse;whiteSpace=wrap;html=1;rounded=0;" parent="1" vertex="1">
          <mxGeometry x="-820" y="1855" width="80" height="80" as="geometry" />
        </mxCell>
        <mxCell id="Brb8-mD9N2KLEKnw9XJb-319" value="Write out Results" style="text;html=1;align=center;verticalAlign=middle;whiteSpace=wrap;rounded=0;" parent="1" vertex="1">
          <mxGeometry x="-1560" y="1980" width="190" height="30" as="geometry" />
        </mxCell>
        <mxCell id="Brb8-mD9N2KLEKnw9XJb-320" value="" style="edgeStyle=orthogonalEdgeStyle;rounded=0;orthogonalLoop=1;jettySize=auto;html=1;" parent="1" source="Brb8-mD9N2KLEKnw9XJb-321" edge="1">
          <mxGeometry relative="1" as="geometry">
            <mxPoint x="-1350" y="2095" as="targetPoint" />
          </mxGeometry>
        </mxCell>
        <mxCell id="Brb8-mD9N2KLEKnw9XJb-321" value="Resources" style="shape=parallelogram;perimeter=parallelogramPerimeter;whiteSpace=wrap;html=1;fixedSize=1;" parent="1" vertex="1">
          <mxGeometry x="-1520" y="2065" width="120" height="60" as="geometry" />
        </mxCell>
        <mxCell id="Brb8-mD9N2KLEKnw9XJb-322" value="" style="edgeStyle=orthogonalEdgeStyle;rounded=0;orthogonalLoop=1;jettySize=auto;html=1;" parent="1" source="Brb8-mD9N2KLEKnw9XJb-323" target="Brb8-mD9N2KLEKnw9XJb-325" edge="1">
          <mxGeometry relative="1" as="geometry" />
        </mxCell>
        <mxCell id="Brb8-mD9N2KLEKnw9XJb-323" value="Order Resources by Patient" style="rounded=0;whiteSpace=wrap;html=1;" parent="1" vertex="1">
          <mxGeometry x="-1350" y="2065" width="120" height="60" as="geometry" />
        </mxCell>
        <mxCell id="Brb8-mD9N2KLEKnw9XJb-324" value="" style="edgeStyle=orthogonalEdgeStyle;rounded=0;orthogonalLoop=1;jettySize=auto;html=1;" parent="1" source="Brb8-mD9N2KLEKnw9XJb-325" target="Brb8-mD9N2KLEKnw9XJb-327" edge="1">
          <mxGeometry relative="1" as="geometry" />
        </mxCell>
        <mxCell id="Brb8-mD9N2KLEKnw9XJb-325" value="Create Metadata" style="rounded=0;whiteSpace=wrap;html=1;" parent="1" vertex="1">
          <mxGeometry x="-1180" y="2065" width="120" height="60" as="geometry" />
        </mxCell>
        <mxCell id="Brb8-mD9N2KLEKnw9XJb-326" value="" style="edgeStyle=orthogonalEdgeStyle;rounded=0;orthogonalLoop=1;jettySize=auto;html=1;" parent="1" source="Brb8-mD9N2KLEKnw9XJb-327" target="Brb8-mD9N2KLEKnw9XJb-328" edge="1">
          <mxGeometry relative="1" as="geometry" />
        </mxCell>
        <mxCell id="Brb8-mD9N2KLEKnw9XJb-327" value="Write Files" style="rounded=0;whiteSpace=wrap;html=1;" parent="1" vertex="1">
          <mxGeometry x="-1020" y="2065" width="120" height="60" as="geometry" />
        </mxCell>
        <mxCell id="Brb8-mD9N2KLEKnw9XJb-328" value="Finish Write" style="ellipse;whiteSpace=wrap;html=1;rounded=0;" parent="1" vertex="1">
          <mxGeometry x="-830" y="2055" width="80" height="80" as="geometry" />
        </mxCell>
        <mxCell id="qXSFNuCbwQx_Ih3ncW2b-9" value="" style="edgeStyle=orthogonalEdgeStyle;rounded=0;orthogonalLoop=1;jettySize=auto;html=1;" parent="1" source="qXSFNuCbwQx_Ih3ncW2b-4" target="qXSFNuCbwQx_Ih3ncW2b-8" edge="1">
          <mxGeometry relative="1" as="geometry" />
        </mxCell>
        <mxCell id="qXSFNuCbwQx_Ih3ncW2b-4" value="Resource" style="shape=parallelogram;perimeter=parallelogramPerimeter;whiteSpace=wrap;html=1;fixedSize=1;" parent="1" vertex="1">
          <mxGeometry x="-1540" y="2250" width="120" height="60" as="geometry" />
        </mxCell>
        <mxCell id="qXSFNuCbwQx_Ih3ncW2b-5" value="Redact uncopied mandatory fields recursively" style="shape=process;whiteSpace=wrap;html=1;backgroundOutline=1;" parent="1" vertex="1">
          <mxGeometry x="-1000" y="1865" width="120" height="60" as="geometry" />
        </mxCell>
        <mxCell id="qXSFNuCbwQx_Ih3ncW2b-7" value="Recursive Redaction" style="text;html=1;align=center;verticalAlign=middle;resizable=0;points=[];autosize=1;strokeColor=none;fillColor=none;" parent="1" vertex="1">
          <mxGeometry x="-1530" y="2210" width="130" height="30" as="geometry" />
        </mxCell>
        <mxCell id="qXSFNuCbwQx_Ih3ncW2b-11" value="" style="edgeStyle=orthogonalEdgeStyle;rounded=0;orthogonalLoop=1;jettySize=auto;html=1;" parent="1" source="qXSFNuCbwQx_Ih3ncW2b-8" target="qXSFNuCbwQx_Ih3ncW2b-10" edge="1">
          <mxGeometry relative="1" as="geometry" />
        </mxCell>
        <mxCell id="qXSFNuCbwQx_Ih3ncW2b-8" value="Get applicable Profiles" style="rounded=0;whiteSpace=wrap;html=1;" parent="1" vertex="1">
          <mxGeometry x="-1350" y="2250" width="120" height="60" as="geometry" />
        </mxCell>
        <mxCell id="qXSFNuCbwQx_Ih3ncW2b-15" value="" style="edgeStyle=orthogonalEdgeStyle;rounded=0;orthogonalLoop=1;jettySize=auto;html=1;" parent="1" source="qXSFNuCbwQx_Ih3ncW2b-10" target="qXSFNuCbwQx_Ih3ncW2b-14" edge="1">
          <mxGeometry relative="1" as="geometry" />
        </mxCell>
        <mxCell id="qXSFNuCbwQx_Ih3ncW2b-10" value="Get field children" style="whiteSpace=wrap;html=1;rounded=0;" parent="1" vertex="1">
          <mxGeometry x="-1150.89" y="2250" width="120" height="60" as="geometry" />
        </mxCell>
        <mxCell id="qXSFNuCbwQx_Ih3ncW2b-18" value="" style="edgeStyle=orthogonalEdgeStyle;rounded=0;orthogonalLoop=1;jettySize=auto;html=1;" parent="1" source="qXSFNuCbwQx_Ih3ncW2b-14" target="qXSFNuCbwQx_Ih3ncW2b-17" edge="1">
          <mxGeometry relative="1" as="geometry" />
        </mxCell>
        <mxCell id="qXSFNuCbwQx_Ih3ncW2b-19" value="yes" style="edgeLabel;html=1;align=center;verticalAlign=middle;resizable=0;points=[];" parent="qXSFNuCbwQx_Ih3ncW2b-18" connectable="0" vertex="1">
          <mxGeometry x="-0.1939" y="2" relative="1" as="geometry">
            <mxPoint x="-5" y="-18" as="offset" />
          </mxGeometry>
        </mxCell>
        <mxCell id="qXSFNuCbwQx_Ih3ncW2b-29" value="" style="edgeStyle=orthogonalEdgeStyle;rounded=0;orthogonalLoop=1;jettySize=auto;html=1;" parent="1" source="qXSFNuCbwQx_Ih3ncW2b-14" target="qXSFNuCbwQx_Ih3ncW2b-28" edge="1">
          <mxGeometry relative="1" as="geometry" />
        </mxCell>
        <mxCell id="qXSFNuCbwQx_Ih3ncW2b-14" value="Can field be a slice?" style="rhombus;whiteSpace=wrap;html=1;rounded=0;" parent="1" vertex="1">
          <mxGeometry x="-930" y="2235" width="90" height="90" as="geometry" />
        </mxCell>
        <mxCell id="qXSFNuCbwQx_Ih3ncW2b-22" value="" style="edgeStyle=orthogonalEdgeStyle;rounded=0;orthogonalLoop=1;jettySize=auto;html=1;" parent="1" source="qXSFNuCbwQx_Ih3ncW2b-17" target="qXSFNuCbwQx_Ih3ncW2b-21" edge="1">
          <mxGeometry relative="1" as="geometry" />
        </mxCell>
        <mxCell id="qXSFNuCbwQx_Ih3ncW2b-56" value="no" style="edgeLabel;html=1;align=center;verticalAlign=middle;resizable=0;points=[];" parent="qXSFNuCbwQx_Ih3ncW2b-22" connectable="0" vertex="1">
          <mxGeometry x="-0.3212" y="1" relative="1" as="geometry">
            <mxPoint x="19" as="offset" />
          </mxGeometry>
        </mxCell>
        <mxCell id="qXSFNuCbwQx_Ih3ncW2b-17" value="Get Slicing candidates" style="whiteSpace=wrap;html=1;rounded=0;" parent="1" vertex="1">
          <mxGeometry x="-790.0000000000001" y="2250" width="120" height="60" as="geometry" />
        </mxCell>
        <mxCell id="qXSFNuCbwQx_Ih3ncW2b-38" value="" style="edgeStyle=orthogonalEdgeStyle;rounded=0;orthogonalLoop=1;jettySize=auto;html=1;" parent="1" source="qXSFNuCbwQx_Ih3ncW2b-21" target="qXSFNuCbwQx_Ih3ncW2b-28" edge="1">
          <mxGeometry relative="1" as="geometry" />
        </mxCell>
        <mxCell id="qXSFNuCbwQx_Ih3ncW2b-40" value="yes" style="edgeLabel;html=1;align=center;verticalAlign=middle;resizable=0;points=[];" parent="qXSFNuCbwQx_Ih3ncW2b-38" connectable="0" vertex="1">
          <mxGeometry x="-0.3273" y="6" relative="1" as="geometry">
            <mxPoint y="-36" as="offset" />
          </mxGeometry>
        </mxCell>
        <mxCell id="qXSFNuCbwQx_Ih3ncW2b-58" value="" style="edgeStyle=orthogonalEdgeStyle;rounded=0;orthogonalLoop=1;jettySize=auto;html=1;" parent="1" source="qXSFNuCbwQx_Ih3ncW2b-21" target="qXSFNuCbwQx_Ih3ncW2b-57" edge="1">
          <mxGeometry relative="1" as="geometry" />
        </mxCell>
        <mxCell id="qXSFNuCbwQx_Ih3ncW2b-59" value="no" style="edgeLabel;html=1;align=center;verticalAlign=middle;resizable=0;points=[];" parent="qXSFNuCbwQx_Ih3ncW2b-58" connectable="0" vertex="1">
          <mxGeometry x="-0.1209" y="1" relative="1" as="geometry">
            <mxPoint x="8" y="-29" as="offset" />
          </mxGeometry>
        </mxCell>
        <mxCell id="qXSFNuCbwQx_Ih3ncW2b-21" value="Slicing allowed" style="rhombus;whiteSpace=wrap;html=1;rounded=0;" parent="1" vertex="1">
          <mxGeometry x="-775" y="2385" width="90" height="90" as="geometry" />
        </mxCell>
        <mxCell id="qXSFNuCbwQx_Ih3ncW2b-33" value="" style="edgeStyle=orthogonalEdgeStyle;rounded=0;orthogonalLoop=1;jettySize=auto;html=1;" parent="1" source="qXSFNuCbwQx_Ih3ncW2b-28" edge="1">
          <mxGeometry relative="1" as="geometry">
            <mxPoint x="-885" y="2540" as="targetPoint" />
          </mxGeometry>
        </mxCell>
        <mxCell id="qXSFNuCbwQx_Ih3ncW2b-52" value="yes" style="edgeLabel;html=1;align=center;verticalAlign=middle;resizable=0;points=[];" parent="qXSFNuCbwQx_Ih3ncW2b-33" connectable="0" vertex="1">
          <mxGeometry x="-0.0909" y="3" relative="1" as="geometry">
            <mxPoint x="37" as="offset" />
          </mxGeometry>
        </mxCell>
        <mxCell id="qXSFNuCbwQx_Ih3ncW2b-54" value="" style="edgeStyle=orthogonalEdgeStyle;rounded=0;orthogonalLoop=1;jettySize=auto;html=1;" parent="1" source="qXSFNuCbwQx_Ih3ncW2b-28" edge="1">
          <mxGeometry relative="1" as="geometry">
            <mxPoint x="-990" y="2430" as="targetPoint" />
          </mxGeometry>
        </mxCell>
        <mxCell id="qXSFNuCbwQx_Ih3ncW2b-55" value="no" style="edgeLabel;html=1;align=center;verticalAlign=middle;resizable=0;points=[];" parent="qXSFNuCbwQx_Ih3ncW2b-54" connectable="0" vertex="1">
          <mxGeometry x="-0.1357" y="2" relative="1" as="geometry">
            <mxPoint x="3" y="-22" as="offset" />
          </mxGeometry>
        </mxCell>
        <mxCell id="qXSFNuCbwQx_Ih3ncW2b-28" value="Is field set?" style="rhombus;whiteSpace=wrap;html=1;rounded=0;" parent="1" vertex="1">
          <mxGeometry x="-925" y="2390" width="80" height="80" as="geometry" />
        </mxCell>
        <mxCell id="qXSFNuCbwQx_Ih3ncW2b-45" style="edgeStyle=orthogonalEdgeStyle;rounded=0;orthogonalLoop=1;jettySize=auto;html=1;entryX=0.5;entryY=1;entryDx=0;entryDy=0;" parent="1" target="qXSFNuCbwQx_Ih3ncW2b-10" edge="1">
          <mxGeometry relative="1" as="geometry">
            <mxPoint x="-924.9999999999995" y="2579.999999999999" as="sourcePoint" />
          </mxGeometry>
        </mxCell>
        <mxCell id="qXSFNuCbwQx_Ih3ncW2b-46" value="yes" style="edgeLabel;html=1;align=center;verticalAlign=middle;resizable=0;points=[];" parent="qXSFNuCbwQx_Ih3ncW2b-45" connectable="0" vertex="1">
          <mxGeometry x="0.3827" y="-3" relative="1" as="geometry">
            <mxPoint x="-54" as="offset" />
          </mxGeometry>
        </mxCell>
        <mxCell id="qXSFNuCbwQx_Ih3ncW2b-50" value="" style="edgeStyle=orthogonalEdgeStyle;rounded=0;orthogonalLoop=1;jettySize=auto;html=1;" parent="1" target="qXSFNuCbwQx_Ih3ncW2b-49" edge="1">
          <mxGeometry relative="1" as="geometry">
            <mxPoint x="-845" y="2580" as="sourcePoint" />
          </mxGeometry>
        </mxCell>
        <mxCell id="qXSFNuCbwQx_Ih3ncW2b-51" value="no" style="edgeLabel;html=1;align=center;verticalAlign=middle;resizable=0;points=[];" parent="qXSFNuCbwQx_Ih3ncW2b-50" connectable="0" vertex="1">
          <mxGeometry x="-0.3841" y="2" relative="1" as="geometry">
            <mxPoint x="10" y="-28" as="offset" />
          </mxGeometry>
        </mxCell>
        <mxCell id="qXSFNuCbwQx_Ih3ncW2b-49" value="Set Data Absent Reason" style="ellipse;whiteSpace=wrap;html=1;rounded=0;" parent="1" vertex="1">
          <mxGeometry x="-765" y="2540" width="80" height="80" as="geometry" />
        </mxCell>
        <mxCell id="qXSFNuCbwQx_Ih3ncW2b-57" value="Remove Field" style="ellipse;whiteSpace=wrap;html=1;rounded=0;" parent="1" vertex="1">
          <mxGeometry x="-600" y="2390" width="80" height="80" as="geometry" />
        </mxCell>
        <mxCell id="qXSFNuCbwQx_Ih3ncW2b-60" value="Is field set? " style="rhombus;whiteSpace=wrap;html=1;rounded=0;" parent="1" vertex="1">
          <mxGeometry x="-925" y="2540" width="80" height="80" as="geometry" />
        </mxCell>
        <mxCell id="qXSFNuCbwQx_Ih3ncW2b-64" value="" style="edgeStyle=orthogonalEdgeStyle;rounded=0;orthogonalLoop=1;jettySize=auto;html=1;" parent="1" source="qXSFNuCbwQx_Ih3ncW2b-61" target="qXSFNuCbwQx_Ih3ncW2b-63" edge="1">
          <mxGeometry relative="1" as="geometry" />
        </mxCell>
        <mxCell id="qXSFNuCbwQx_Ih3ncW2b-61" value="Is field mandatory? " style="rhombus;whiteSpace=wrap;html=1;rounded=0;" parent="1" vertex="1">
          <mxGeometry x="-1070" y="2390" width="80" height="80" as="geometry" />
        </mxCell>
        <mxCell id="qXSFNuCbwQx_Ih3ncW2b-63" value="Set Data Absent Reason" style="ellipse;whiteSpace=wrap;html=1;rounded=0;" parent="1" vertex="1">
          <mxGeometry x="-1070" y="2490" width="80" height="80" as="geometry" />
        </mxCell>
        <mxCell id="qXSFNuCbwQx_Ih3ncW2b-67" value="ignore field" style="ellipse;whiteSpace=wrap;html=1;aspect=fixed;" parent="1" vertex="1">
          <mxGeometry x="-1065" y="2320" width="65" height="65" as="geometry" />
        </mxCell>
        <mxCell id="qXSFNuCbwQx_Ih3ncW2b-68" value="Fetch and assign one Process" style="shape=callout;whiteSpace=wrap;html=1;perimeter=calloutPerimeter;" parent="1" vertex="1">
          <mxGeometry x="-590" y="-880" width="120" height="80" as="geometry" />
        </mxCell>
        <mxCell id="qXSFNuCbwQx_Ih3ncW2b-72" value="Assign Attribute Groups to Resources " style="text;html=1;align=center;verticalAlign=middle;whiteSpace=wrap;rounded=0;" parent="1" vertex="1">
          <mxGeometry x="-360" y="195" width="190" height="30" as="geometry" />
        </mxCell>
        <mxCell id="qXSFNuCbwQx_Ih3ncW2b-73" value="" style="edgeStyle=orthogonalEdgeStyle;rounded=0;orthogonalLoop=1;jettySize=auto;html=1;entryX=0;entryY=0.5;entryDx=0;entryDy=0;" parent="1" source="qXSFNuCbwQx_Ih3ncW2b-74" target="qXSFNuCbwQx_Ih3ncW2b-79" edge="1">
          <mxGeometry relative="1" as="geometry">
            <mxPoint x="-160" y="300" as="targetPoint" />
          </mxGeometry>
        </mxCell>
        <mxCell id="qXSFNuCbwQx_Ih3ncW2b-74" value="Resource+Attribute Group" style="shape=parallelogram;perimeter=parallelogramPerimeter;whiteSpace=wrap;html=1;fixedSize=1;" parent="1" vertex="1">
          <mxGeometry x="-340" y="270" width="120" height="60" as="geometry" />
        </mxCell>
        <mxCell id="qXSFNuCbwQx_Ih3ncW2b-75" value="" style="edgeStyle=orthogonalEdgeStyle;rounded=0;orthogonalLoop=1;jettySize=auto;html=1;" parent="1" source="qXSFNuCbwQx_Ih3ncW2b-79" target="qXSFNuCbwQx_Ih3ncW2b-90" edge="1">
          <mxGeometry relative="1" as="geometry" />
        </mxCell>
        <mxCell id="qXSFNuCbwQx_Ih3ncW2b-76" value="&lt;div&gt;yes&lt;/div&gt;&lt;div&gt;&lt;br&gt;&lt;/div&gt;" style="edgeLabel;html=1;align=center;verticalAlign=middle;resizable=0;points=[];" parent="qXSFNuCbwQx_Ih3ncW2b-75" connectable="0" vertex="1">
          <mxGeometry x="-0.3983" y="-1" relative="1" as="geometry">
            <mxPoint x="5" y="-21" as="offset" />
          </mxGeometry>
        </mxCell>
        <mxCell id="qXSFNuCbwQx_Ih3ncW2b-77" style="edgeStyle=orthogonalEdgeStyle;rounded=0;orthogonalLoop=1;jettySize=auto;html=1;entryX=0.5;entryY=1;entryDx=0;entryDy=0;" parent="1" source="qXSFNuCbwQx_Ih3ncW2b-79" target="qXSFNuCbwQx_Ih3ncW2b-88" edge="1">
          <mxGeometry relative="1" as="geometry" />
        </mxCell>
        <mxCell id="qXSFNuCbwQx_Ih3ncW2b-78" value="no" style="edgeLabel;html=1;align=center;verticalAlign=middle;resizable=0;points=[];" parent="qXSFNuCbwQx_Ih3ncW2b-77" connectable="0" vertex="1">
          <mxGeometry x="0.1081" relative="1" as="geometry">
            <mxPoint x="10" as="offset" />
          </mxGeometry>
        </mxCell>
        <mxCell id="qXSFNuCbwQx_Ih3ncW2b-79" value="&lt;div&gt;Does Resource match&lt;/div&gt;&lt;div&gt;&amp;nbsp;Must Haves&lt;br&gt;&lt;/div&gt;" style="rhombus;whiteSpace=wrap;html=1;" parent="1" vertex="1">
          <mxGeometry x="-118.22000000000003" y="240" width="140" height="120" as="geometry" />
        </mxCell>
        <mxCell id="qXSFNuCbwQx_Ih3ncW2b-88" value="Don&#39;t assign Attribute Group" style="rounded=0;whiteSpace=wrap;html=1;" parent="1" vertex="1">
          <mxGeometry x="-108.22000000000003" y="60" width="120" height="60" as="geometry" />
        </mxCell>
        <mxCell id="qXSFNuCbwQx_Ih3ncW2b-90" value="Assign Attribute Group&amp;nbsp; to Resource" style="rounded=0;whiteSpace=wrap;html=1;" parent="1" vertex="1">
          <mxGeometry x="71.77999999999997" y="270" width="120" height="60" as="geometry" />
        </mxCell>
        <mxCell id="2eRo7e5UCQbQcv5oba8E-1" value="" style="edgeStyle=orthogonalEdgeStyle;rounded=0;orthogonalLoop=1;jettySize=auto;html=1;" edge="1" parent="1" source="2eRo7e5UCQbQcv5oba8E-2" target="2eRo7e5UCQbQcv5oba8E-4">
          <mxGeometry relative="1" as="geometry" />
        </mxCell>
        <mxCell id="2eRo7e5UCQbQcv5oba8E-2" value="Patient Batch +&lt;div&gt;AttrGroups&lt;/div&gt;" style="shape=parallelogram;html=1;strokeWidth=2;perimeter=parallelogramPerimeter;whiteSpace=wrap;rounded=1;arcSize=12;size=0.23;" vertex="1" parent="1">
          <mxGeometry x="-320" y="-1485" width="160" height="90" as="geometry" />
        </mxCell>
        <mxCell id="2eRo7e5UCQbQcv5oba8E-3" value="" style="edgeStyle=orthogonalEdgeStyle;rounded=0;orthogonalLoop=1;jettySize=auto;html=1;" edge="1" parent="1" source="2eRo7e5UCQbQcv5oba8E-4" target="2eRo7e5UCQbQcv5oba8E-5">
          <mxGeometry relative="1" as="geometry" />
        </mxCell>
        <mxCell id="2eRo7e5UCQbQcv5oba8E-4" value="Direct Load AttrGroup&lt;div&gt;Resources&lt;/div&gt;" style="rounded=1;whiteSpace=wrap;html=1;absoluteArcSize=1;arcSize=14;strokeWidth=2;" vertex="1" parent="1">
          <mxGeometry x="-50" y="-1490" width="170" height="100" as="geometry" />
        </mxCell>
        <mxCell id="2eRo7e5UCQbQcv5oba8E-5" value="Patient Batch +&lt;div&gt;Unique Directly Loaded Resources&lt;/div&gt;" style="shape=parallelogram;perimeter=parallelogramPerimeter;whiteSpace=wrap;html=1;fixedSize=1;rounded=1;arcSize=14;strokeWidth=2;" vertex="1" parent="1">
          <mxGeometry x="225" y="-1470" width="120" height="60" as="geometry" />
        </mxCell>
        <mxCell id="2eRo7e5UCQbQcv5oba8E-6" value="" style="edgeStyle=orthogonalEdgeStyle;rounded=0;orthogonalLoop=1;jettySize=auto;html=1;" edge="1" parent="1" source="2eRo7e5UCQbQcv5oba8E-7" target="2eRo7e5UCQbQcv5oba8E-10">
          <mxGeometry relative="1" as="geometry" />
        </mxCell>
        <mxCell id="2eRo7e5UCQbQcv5oba8E-7" value="Patient +&lt;div&gt;Unique Directly Loaded&amp;nbsp;&lt;/div&gt;&lt;div&gt;Resources&lt;/div&gt;" style="shape=parallelogram;html=1;strokeWidth=2;perimeter=parallelogramPerimeter;whiteSpace=wrap;rounded=1;arcSize=12;size=0.23;" vertex="1" parent="1">
          <mxGeometry x="-341" y="-1235" width="160" height="90" as="geometry" />
        </mxCell>
        <mxCell id="2eRo7e5UCQbQcv5oba8E-8" value="For Each Patient" style="shape=callout;whiteSpace=wrap;html=1;perimeter=calloutPerimeter;" vertex="1" parent="1">
          <mxGeometry x="-350" y="-1305" width="120" height="80" as="geometry" />
        </mxCell>
        <mxCell id="2eRo7e5UCQbQcv5oba8E-9" value="" style="edgeStyle=orthogonalEdgeStyle;rounded=0;orthogonalLoop=1;jettySize=auto;html=1;" edge="1" parent="1" source="2eRo7e5UCQbQcv5oba8E-10" target="2eRo7e5UCQbQcv5oba8E-11">
          <mxGeometry relative="1" as="geometry" />
        </mxCell>
        <mxCell id="2eRo7e5UCQbQcv5oba8E-10" value="Resolve References" style="rounded=1;whiteSpace=wrap;html=1;strokeWidth=2;arcSize=12;" vertex="1" parent="1">
          <mxGeometry x="-80" y="-1242.5" width="170" height="105" as="geometry" />
        </mxCell>
        <mxCell id="2eRo7e5UCQbQcv5oba8E-11" value="Patient +&lt;div&gt;Unique Loaded&amp;nbsp;&lt;/div&gt;&lt;div&gt;Resources&lt;/div&gt;" style="shape=parallelogram;html=1;strokeWidth=2;perimeter=parallelogramPerimeter;whiteSpace=wrap;rounded=1;arcSize=12;size=0.23;" vertex="1" parent="1">
          <mxGeometry x="185" y="-1235" width="160" height="90" as="geometry" />
        </mxCell>
        <mxCell id="2eRo7e5UCQbQcv5oba8E-12" value="Resolve References" style="shape=callout;whiteSpace=wrap;html=1;perimeter=calloutPerimeter;" vertex="1" parent="1">
          <mxGeometry x="-340" y="-1055" width="120" height="80" as="geometry" />
        </mxCell>
        <mxCell id="2eRo7e5UCQbQcv5oba8E-13" value="" style="edgeStyle=orthogonalEdgeStyle;rounded=0;orthogonalLoop=1;jettySize=auto;html=1;" edge="1" parent="1" source="2eRo7e5UCQbQcv5oba8E-14" target="2eRo7e5UCQbQcv5oba8E-16">
          <mxGeometry relative="1" as="geometry" />
        </mxCell>
        <mxCell id="2eRo7e5UCQbQcv5oba8E-14" value="Resource" style="shape=parallelogram;html=1;strokeWidth=2;perimeter=parallelogramPerimeter;whiteSpace=wrap;rounded=1;arcSize=12;size=0.23;" vertex="1" parent="1">
          <mxGeometry x="-330" y="-965" width="100" height="60" as="geometry" />
        </mxCell>
        <mxCell id="2eRo7e5UCQbQcv5oba8E-15" value="" style="edgeStyle=orthogonalEdgeStyle;rounded=0;orthogonalLoop=1;jettySize=auto;html=1;" edge="1" parent="1" source="2eRo7e5UCQbQcv5oba8E-16" target="2eRo7e5UCQbQcv5oba8E-17">
          <mxGeometry relative="1" as="geometry" />
        </mxCell>
        <mxCell id="2eRo7e5UCQbQcv5oba8E-16" value="Extract References" style="rounded=1;whiteSpace=wrap;html=1;strokeWidth=2;arcSize=12;" vertex="1" parent="1">
          <mxGeometry x="-160" y="-965" width="120" height="60" as="geometry" />
        </mxCell>
        <mxCell id="2eRo7e5UCQbQcv5oba8E-17" value="Source Resource +&lt;div&gt;Reference +&lt;div&gt;AttrGroups&lt;/div&gt;&lt;/div&gt;" style="shape=parallelogram;perimeter=parallelogramPerimeter;whiteSpace=wrap;html=1;fixedSize=1;rounded=1;strokeWidth=2;arcSize=12;" vertex="1" parent="1">
          <mxGeometry x="40" y="-965" width="120" height="60" as="geometry" />
        </mxCell>
        <mxCell id="2eRo7e5UCQbQcv5oba8E-18" value="Stream of" style="shape=callout;whiteSpace=wrap;html=1;perimeter=calloutPerimeter;" vertex="1" parent="1">
          <mxGeometry x="40" y="-1035" width="120" height="80" as="geometry" />
        </mxCell>
        <mxCell id="2eRo7e5UCQbQcv5oba8E-19" value="" style="edgeStyle=orthogonalEdgeStyle;rounded=0;orthogonalLoop=1;jettySize=auto;html=1;" edge="1" parent="1" source="2eRo7e5UCQbQcv5oba8E-20" target="2eRo7e5UCQbQcv5oba8E-23">
          <mxGeometry relative="1" as="geometry" />
        </mxCell>
        <mxCell id="2eRo7e5UCQbQcv5oba8E-20" value="Source Resource +&lt;div&gt;Reference +&lt;div&gt;AttrGroups&lt;/div&gt;&lt;/div&gt;" style="shape=parallelogram;perimeter=parallelogramPerimeter;whiteSpace=wrap;html=1;fixedSize=1;rounded=1;strokeWidth=2;arcSize=12;" vertex="1" parent="1">
          <mxGeometry x="-340" y="-815" width="120" height="60" as="geometry" />
        </mxCell>
        <mxCell id="2eRo7e5UCQbQcv5oba8E-21" value="For Each Reference" style="shape=callout;whiteSpace=wrap;html=1;perimeter=calloutPerimeter;" vertex="1" parent="1">
          <mxGeometry x="-350" y="-885" width="120" height="80" as="geometry" />
        </mxCell>
        <mxCell id="2eRo7e5UCQbQcv5oba8E-22" value="" style="edgeStyle=orthogonalEdgeStyle;rounded=0;orthogonalLoop=1;jettySize=auto;html=1;" edge="1" parent="1" source="2eRo7e5UCQbQcv5oba8E-23" target="2eRo7e5UCQbQcv5oba8E-28">
          <mxGeometry relative="1" as="geometry" />
        </mxCell>
        <mxCell id="2eRo7e5UCQbQcv5oba8E-23" value="Load Resource&lt;div&gt;(including Filter Match from all AttrGroups)&lt;/div&gt;" style="whiteSpace=wrap;html=1;rounded=1;strokeWidth=2;arcSize=12;" vertex="1" parent="1">
          <mxGeometry x="-140" y="-815" width="120" height="60" as="geometry" />
        </mxCell>
        <mxCell id="2eRo7e5UCQbQcv5oba8E-24" value="" style="edgeStyle=orthogonalEdgeStyle;rounded=0;orthogonalLoop=1;jettySize=auto;html=1;" edge="1" parent="1" source="2eRo7e5UCQbQcv5oba8E-28" target="2eRo7e5UCQbQcv5oba8E-30">
          <mxGeometry relative="1" as="geometry" />
        </mxCell>
        <mxCell id="2eRo7e5UCQbQcv5oba8E-25" value="Yes" style="edgeLabel;html=1;align=center;verticalAlign=middle;resizable=0;points=[];" vertex="1" connectable="0" parent="2eRo7e5UCQbQcv5oba8E-24">
          <mxGeometry x="-0.0284" relative="1" as="geometry">
            <mxPoint as="offset" />
          </mxGeometry>
        </mxCell>
        <mxCell id="2eRo7e5UCQbQcv5oba8E-26" value="" style="edgeStyle=orthogonalEdgeStyle;rounded=0;orthogonalLoop=1;jettySize=auto;html=1;" edge="1" parent="1" source="2eRo7e5UCQbQcv5oba8E-28" target="2eRo7e5UCQbQcv5oba8E-35">
          <mxGeometry relative="1" as="geometry" />
        </mxCell>
        <mxCell id="2eRo7e5UCQbQcv5oba8E-27" value="No" style="edgeLabel;html=1;align=center;verticalAlign=middle;resizable=0;points=[];" vertex="1" connectable="0" parent="2eRo7e5UCQbQcv5oba8E-26">
          <mxGeometry x="-0.156" y="1" relative="1" as="geometry">
            <mxPoint as="offset" />
          </mxGeometry>
        </mxCell>
        <mxCell id="2eRo7e5UCQbQcv5oba8E-28" value="Loaded?" style="rhombus;whiteSpace=wrap;html=1;rounded=1;strokeWidth=2;arcSize=12;" vertex="1" parent="1">
          <mxGeometry x="80" y="-825" width="80" height="80" as="geometry" />
        </mxCell>
        <mxCell id="2eRo7e5UCQbQcv5oba8E-29" value="" style="edgeStyle=orthogonalEdgeStyle;rounded=0;orthogonalLoop=1;jettySize=auto;html=1;" edge="1" parent="1" source="2eRo7e5UCQbQcv5oba8E-30" target="2eRo7e5UCQbQcv5oba8E-40">
          <mxGeometry relative="1" as="geometry" />
        </mxCell>
        <mxCell id="2eRo7e5UCQbQcv5oba8E-30" value="At least One Must Have Matches?" style="rhombus;whiteSpace=wrap;html=1;rounded=1;strokeWidth=2;arcSize=12;" vertex="1" parent="1">
          <mxGeometry x="240" y="-825" width="80" height="80" as="geometry" />
        </mxCell>
        <mxCell id="2eRo7e5UCQbQcv5oba8E-31" value="" style="edgeStyle=orthogonalEdgeStyle;rounded=0;orthogonalLoop=1;jettySize=auto;html=1;" edge="1" parent="1" source="2eRo7e5UCQbQcv5oba8E-35" target="2eRo7e5UCQbQcv5oba8E-36">
          <mxGeometry relative="1" as="geometry" />
        </mxCell>
        <mxCell id="2eRo7e5UCQbQcv5oba8E-32" value="Yes" style="edgeLabel;html=1;align=center;verticalAlign=middle;resizable=0;points=[];" vertex="1" connectable="0" parent="2eRo7e5UCQbQcv5oba8E-31">
          <mxGeometry x="0.0954" relative="1" as="geometry">
            <mxPoint as="offset" />
          </mxGeometry>
        </mxCell>
        <mxCell id="2eRo7e5UCQbQcv5oba8E-33" value="" style="edgeStyle=orthogonalEdgeStyle;rounded=0;orthogonalLoop=1;jettySize=auto;html=1;" edge="1" parent="1" source="2eRo7e5UCQbQcv5oba8E-35" target="2eRo7e5UCQbQcv5oba8E-37">
          <mxGeometry relative="1" as="geometry" />
        </mxCell>
        <mxCell id="2eRo7e5UCQbQcv5oba8E-34" value="No" style="edgeLabel;html=1;align=center;verticalAlign=middle;resizable=0;points=[];" vertex="1" connectable="0" parent="2eRo7e5UCQbQcv5oba8E-33">
          <mxGeometry x="-0.1425" y="1" relative="1" as="geometry">
            <mxPoint as="offset" />
          </mxGeometry>
        </mxCell>
        <mxCell id="2eRo7e5UCQbQcv5oba8E-35" value="Reference Must Have?" style="rhombus;whiteSpace=wrap;html=1;rounded=1;strokeWidth=2;arcSize=12;" vertex="1" parent="1">
          <mxGeometry x="80" y="-665" width="80" height="80" as="geometry" />
        </mxCell>
        <mxCell id="2eRo7e5UCQbQcv5oba8E-36" value="Mark Source Resource as Deleted" style="whiteSpace=wrap;html=1;rounded=1;strokeWidth=2;arcSize=12;" vertex="1" parent="1">
          <mxGeometry x="-100" y="-655" width="120" height="60" as="geometry" />
        </mxCell>
        <mxCell id="2eRo7e5UCQbQcv5oba8E-37" value="Replace Reference with Data Absent Reason in Source Resource" style="rounded=1;whiteSpace=wrap;html=1;strokeWidth=2;arcSize=12;" vertex="1" parent="1">
          <mxGeometry x="60" y="-495" width="120" height="60" as="geometry" />
        </mxCell>
        <mxCell id="2eRo7e5UCQbQcv5oba8E-38" value="" style="endArrow=classic;html=1;rounded=0;exitX=0.5;exitY=1;exitDx=0;exitDy=0;entryX=1;entryY=0.5;entryDx=0;entryDy=0;" edge="1" parent="1" source="2eRo7e5UCQbQcv5oba8E-30" target="2eRo7e5UCQbQcv5oba8E-35">
          <mxGeometry width="50" height="50" relative="1" as="geometry">
            <mxPoint x="-60" y="-715" as="sourcePoint" />
            <mxPoint x="-10" y="-765" as="targetPoint" />
          </mxGeometry>
        </mxCell>
        <mxCell id="2eRo7e5UCQbQcv5oba8E-39" value="No" style="edgeLabel;html=1;align=center;verticalAlign=middle;resizable=0;points=[];" vertex="1" connectable="0" parent="2eRo7e5UCQbQcv5oba8E-38">
          <mxGeometry x="-0.0425" y="3" relative="1" as="geometry">
            <mxPoint as="offset" />
          </mxGeometry>
        </mxCell>
        <mxCell id="2eRo7e5UCQbQcv5oba8E-40" value="Attach Matching AttrGroups&lt;div&gt;to Loaded Resource&lt;/div&gt;" style="rounded=1;whiteSpace=wrap;html=1;strokeWidth=2;arcSize=12;" vertex="1" parent="1">
          <mxGeometry x="380" y="-815" width="120" height="60" as="geometry" />
        </mxCell>
        <mxCell id="2eRo7e5UCQbQcv5oba8E-41" value="For Each Patient Batch" style="shape=callout;whiteSpace=wrap;html=1;perimeter=calloutPerimeter;" vertex="1" parent="1">
          <mxGeometry x="-301" y="-1570" width="120" height="80" as="geometry" />
        </mxCell>
      </root>
    </mxGraphModel>
  </diagram>
</mxfile>
